PathFileType	4	(X/Y/Z)	Patient4_TMGait_0pt6_02_left_04.trc.trc
DataRate	CameraRate	NumFrames	NumMarkers	Units	OrigDataRate	OrigDataStartFrame	OrigNumFrames
80.924855491330	80.924855491330	4	33	mm	80.924855491330	71	       141
Frame#	Time	Sacral			L.Shoulder			Chest			R.Shoulder			Neck			R.ASIS			L.ASIS			R.Thigh.Superior			R.Thigh.Lateral			R.Thigh.Inferior			R.Patella			L.Thigh.Superior			L.Thigh.Lateral			L.Thigh.Inferior			L.Patella			L.Shank.Superior			L.Shank.Lateral			L.Shank.Inferior			R.Shank.Superior			R.Shank.Lateral			R.Shank.Inferior			R.Heel			R.Midfoot.Superior			R.Midfoot.Lateral			R.Toe			L.Heel			L.Midfoot.Lateral			L.Midfoot.Superior			L.Toe			L.Elbow			L.Wrist			R.Elbow			R.Wrist			
		X1	Y1	Z1	X2	Y2	Z2	X3	Y3	Z3	X4	Y4	Z4	X5	Y5	Z5	X6	Y6	Z6	X7	Y7	Z7	X8	Y8	Z8	X9	Y9	Z9	X10	Y10	Z10	X11	Y11	Z11	X12	Y12	Z12	X13	Y13	Z13	X14	Y14	Z14	X15	Y15	Z15	X16	Y16	Z16	X17	Y17	Z17	X18	Y18	Z18	X19	Y19	Z19	X20	Y20	Z20	X21	Y21	Z21	X22	Y22	Z22	X23	Y23	Z23	X24	Y24	Z24	X25	Y25	Z25	X26	Y26	Z26	X27	Y27	Z27	X28	Y28	Z28	X29	Y29	Z29	X30	Y30	Z30	X31	Y31	Z31	X32	Y32	Z32	X33	Y33	Z33	

71	5.685000000000	684.053852271690	1009.219343604706	468.540086760294	891.469444406263	1436.566250494012	309.177931737071	977.016813039602	1358.932133554100	475.226845996399	880.371896724813	1431.062935564838	642.181525755776	859.873416325952	1491.646392116086	463.085487388443	902.344306084833	944.003277407073	600.932577756581	904.670025050224	954.946126412878	325.645279238732	978.617466394754	772.148853006631	570.686976127541	936.558362944190	649.764700534360	640.685963065754	1022.074319570433	612.754133943069	557.388079078918	1057.176017957636	529.927423211137	571.438983829488	913.308144091828	728.574524725135	364.029148335764	804.557685581288	630.114499027760	297.428998633546	861.701295518460	539.643908098517	369.936930226910	846.089641235353	472.117520990935	381.052373181584	813.191256964615	404.902978669028	371.902863626725	712.309225155014	301.716227718061	319.805079743585	742.426806930161	187.236416130157	395.646700143126	1041.850944855646	442.091911361541	580.796499630560	994.037175312680	327.131082618875	646.210897159560	1060.901335733999	242.629448642731	589.274442591008	968.659756864093	54.146993258238	561.546515055428	1130.166846886963	128.970623817313	596.594247557979	1055.668513652423	50.354966320111	632.132330803423	1257.410571073467	93.478890833306	618.552775734999	598.081475367347	39.283731121188	435.218295310001	672.212783816790	36.134154191424	355.471372247266	756.469779212081	95.278690400257	383.191371596761	884.179224196982	39.548927428692	353.607058185307	915.811960916279	1096.726546187038	167.765114379740	1164.455278013929	1070.327314990818	212.271907687020	743.071167102476	1103.843761288236	724.291103462813	735.862352616716	842.216597427142	728.164219567983	
72	5.697357142857	685.106974645523	1007.771867953976	470.165121018740	890.763857605494	1435.428669852378	310.191916742784	977.058834328770	1358.179861180299	475.992352514968	880.684345740189	1429.989456152722	643.257363739930	859.419110143557	1490.477493127169	464.144235735259	903.514220646726	942.619365755467	602.132130015685	905.681489903458	953.796937601187	326.932085919899	977.082256953981	767.653758102986	573.233706167875	931.797812375132	646.063714662745	642.664122473716	1017.020662694596	607.891905592504	559.660006660889	1050.834220599635	526.468008076708	573.105068814012	912.408129327970	726.854574595883	365.091335612469	802.726522709384	629.180861659756	298.531454012791	859.281100819752	538.204563641941	370.654138183216	843.102812388594	470.513040548276	381.682153323166	809.336200588100	403.673273829055	372.523701744543	707.207349950885	301.724858301001	320.271273298445	736.082798180997	186.772299514632	395.869030672245	1037.490883374909	438.938322585610	582.349499601047	991.557715248396	322.542122007004	646.516839925542	1061.161028623411	239.852796539848	589.819325751216	973.562964264869	49.759486931514	560.208015210918	1133.490981511406	127.244963940546	597.023206674163	1060.018103941283	47.330839491758	631.418403251348	1261.170792045552	93.691976609444	619.532233768812	590.645035027671	39.509236435434	435.225652284891	664.804663396014	36.253511223050	355.523122704683	749.133513234819	95.240760992902	383.238908688191	876.743186631849	39.413857531599	353.563770923619	916.603456970874	1094.968793801110	170.191754771479	1165.245148376728	1066.149534459705	213.940762534267	746.419563978618	1101.428558133667	725.826928689607	742.229724544779	839.723037846874	729.757141726620	
73	5.709714285714	686.329402231122	1006.262987348615	471.998784585326	889.876021627440	1434.274468839391	311.346297795933	977.063101291241	1357.517113939209	476.867123648305	880.940172690609	1428.909294668695	644.485005039785	858.917334381193	1489.307874576871	465.360177326600	904.925027781536	941.175854252874	603.448140221716	906.879815186988	952.588989703200	328.346243322243	976.109902302067	763.480903743970	575.757855600051	927.651608476693	642.536202598067	644.304981236435	1012.776339221293	603.462329753139	561.786340970024	1045.092042891283	522.953197885094	574.669509942462	911.821048285023	725.095635850058	366.158594693429	801.146264912974	628.241782833826	299.782795846178	857.239755608473	536.733536034213	371.394873590750	840.548428229025	468.797595267465	382.323441013686	805.765919585189	402.394579727051	373.171466914467	702.252808858553	301.824829896963	320.770116634895	729.812551135480	186.345474974064	396.064779097354	1033.021208002927	435.521970610999	583.646896311908	987.660716215815	318.205641680358	646.247731575661	1059.239700401271	236.783094973860	589.966820969025	974.432784174163	46.493185055710	558.265393574468	1133.458931113112	124.771345462613	597.115419690282	1060.045764751451	44.708200652894	630.340204130837	1260.989142973028	91.759917997126	620.513160176826	583.188020942521	39.845838504219	435.190329573019	657.403057630750	36.393877951765	355.550097484508	741.828532567906	95.225495654517	383.231882869323	869.332351161444	39.275804747175	353.500724147275	916.950754842424	1093.135896943888	172.717466456279	1165.591950050697	1060.961289840887	215.398945870565	750.229711607274	1098.848973191179	727.713927382590	749.828659188392	837.104229784792	731.882660302205	
74	5.722071428571	687.684501044037	1004.731789832369	474.012474637593	888.849027527314	1433.108865320354	312.647935986585	977.046530389436	1356.950098426474	477.875019854657	881.145495685296	1427.848567517179	645.874454954296	858.404206797508	1488.160856599565	466.735274985515	906.544367983458	939.706481725907	604.898415574671	908.236443559890	951.357163441704	329.902938908205	975.749262552566	759.714865450494	578.238481802097	924.161876447311	639.240025935893	645.574988321776	1009.429277383965	599.551227793014	563.755932078836	1040.058804942836	519.482799398071	576.057013995228	911.576512159430	723.342696978992	367.205295788864	799.865294528884	627.315162427821	301.176036593783	855.664679292328	535.251035764601	372.143394660892	838.533019535743	466.970327280886	382.948441660548	802.557651703166	401.080067186364	373.829555713945	697.499955657624	302.055132391995	321.306252425362	723.659015709038	185.984049968333	396.217190290234	1028.639318343151	431.940203366020	584.635246817066	982.746146064129	314.137909359735	645.508562460920	1055.534121043871	233.436506139849	589.716806944489	971.725627010846	44.163581809445	555.949577448088	1130.561381118951	121.590502378468	596.810831033196	1056.343308852199	42.444846584011	629.029817583127	1257.487651144202	87.870508212604	621.326733681646	575.717683635991	40.361931797160	435.101710196538	650.012153460795	36.574382110145	355.545135067285	734.581731481694	95.235650728419	383.150725391027	861.952028042115	39.137290371521	353.416132476803	916.861046851557	1091.215543969388	175.343754731866	1165.473135881129	1054.754948059112	216.628572921759	754.432237225505	1096.174694328207	729.935122251068	758.581155714512	834.456398162044	734.518164088520	
